umbra-3.ufo
<glyph name="percent" format="1">
  <advance width="641"/>
  <unicode hex="0025"/>
  <outline>
    <contour>
      <point x="400" y="-51" type="line"/>
      <point x="710" y="449" type="line"/>
      <point x="840" y="449" type="line"/>
      <point x="530" y="-51" type="line"/>
    </contour>
    <contour>
      <point x="450" y="257" type="line"/>
      <point x="345" y="362" type="line"/>
      <point x="450" y="468" type="line"/>
      <point x="556" y="362" type="line"/>
    </contour>
    <contour>
      <point x="790" y="-79" type="line"/>
      <point x="685" y="26" type="line"/>
      <point x="790" y="132" type="line"/>
      <point x="896" y="26" type="line"/>
    </contour>
  </outline>
</glyph>
<glyph name="five" format="1">
  <advance width="449"/>
  <unicode hex="0035"/>
  <outline>
    <contour>
      <point x="365" y="188" type="line"/>
      <point x="395" y="449" type="line"/>
      <point x="695" y="449" type="line"/>
      <point x="685" y="334" type="line"/>
      <point x="502" y="334" type="line"/>
      <point x="496" y="283" type="line"/>
      <point x="611" y="282"/>
      <point x="714" y="227"/>
      <point x="714" y="101" type="curve" smooth="yes"/>
      <point x="714" y="-26"/>
      <point x="599" y="-66"/>
      <point x="512" y="-66" type="curve" smooth="yes"/>
      <point x="435" y="-66"/>
      <point x="365" y="-31"/>
      <point x="325" y="6" type="curve"/>
      <point x="345" y="131" type="line"/>
      <point x="385" y="93"/>
      <point x="434" y="59"/>
      <point x="492" y="59" type="curve" smooth="yes"/>
      <point x="540" y="59"/>
      <point x="569" y="78"/>
      <point x="569" y="129" type="curve" smooth="yes"/>
      <point x="569" y="187"/>
      <point x="490" y="188"/>
      <point x="442" y="188" type="curve" smooth="yes"/>
    </contour>
  </outline>
</glyph>
<glyph name="six" format="1">
  <advance width="474"/>
  <unicode hex="0036"/>
  <outline>
    <contour>
      <point x="475" y="111" type="curve" smooth="yes"/>
      <point x="475" y="83"/>
      <point x="494" y="54"/>
      <point x="542" y="54" type="curve" smooth="yes"/>
      <point x="590" y="54"/>
      <point x="609" y="83"/>
      <point x="609" y="111" type="curve" smooth="yes"/>
      <point x="609" y="139"/>
      <point x="590" y="168"/>
      <point x="542" y="168" type="curve" smooth="yes"/>
      <point x="494" y="168"/>
      <point x="475" y="139"/>
    </contour>
    <contour>
      <point x="739" y="111" type="curve" smooth="yes"/>
      <point x="739" y="4"/>
      <point x="664" y="-61"/>
      <point x="547" y="-61" type="curve" smooth="yes"/>
      <point x="390" y="-61"/>
      <point x="335" y="64"/>
      <point x="335" y="181" type="curve" smooth="yes"/>
      <point x="335" y="308"/>
      <point x="411" y="459"/>
      <point x="548" y="459" type="curve" smooth="yes"/>
      <point x="625" y="459"/>
      <point x="695" y="424"/>
      <point x="735" y="377" type="curve"/>
      <point x="694" y="271" type="line"/>
      <point x="654" y="309"/>
      <point x="617" y="339"/>
      <point x="569" y="339" type="curve" smooth="yes"/>
      <point x="501" y="339"/>
      <point x="472" y="280"/>
      <point x="466" y="212" type="curve"/>
      <point x="496" y="249"/>
      <point x="542" y="263"/>
      <point x="577" y="263" type="curve" smooth="yes"/>
      <point x="644" y="263"/>
      <point x="739" y="218"/>
    </contour>
  </outline>
</glyph>
<glyph name="seven" format="1">
  <advance width="455"/>
  <unicode hex="0037"/>
  <outline>
    <contour>
      <point x="735" y="449" type="line"/>
      <point x="734" y="309"/>
      <point x="557" y="256"/>
      <point x="557" y="-54" type="curve"/>
      <point x="422" y="-52" type="line"/>
      <point x="422" y="167"/>
      <point x="509" y="247"/>
      <point x="568" y="329" type="curve"/>
      <point x="325" y="329" type="line"/>
      <point x="325" y="449" type="line"/>
    </contour>
  </outline>
</glyph>
<glyph name="eight" format="1">
  <advance width="464"/>
  <unicode hex="0038"/>
  <outline>
    <contour>
      <point x="460" y="101" type="curve" smooth="yes"/>
      <point x="460" y="73"/>
      <point x="484" y="54"/>
      <point x="532" y="54" type="curve" smooth="yes"/>
      <point x="580" y="54"/>
      <point x="604" y="73"/>
      <point x="604" y="101" type="curve" smooth="yes"/>
      <point x="604" y="129"/>
      <point x="580" y="149"/>
      <point x="532" y="149" type="curve" smooth="yes"/>
      <point x="484" y="149"/>
      <point x="460" y="129"/>
    </contour>
    <contour>
      <point x="480" y="303" type="curve" smooth="yes"/>
      <point x="480" y="275"/>
      <point x="504" y="264"/>
      <point x="532" y="264" type="curve" smooth="yes"/>
      <point x="560" y="264"/>
      <point x="584" y="275"/>
      <point x="584" y="303" type="curve" smooth="yes"/>
      <point x="584" y="331"/>
      <point x="560" y="344"/>
      <point x="532" y="344" type="curve" smooth="yes"/>
      <point x="504" y="344"/>
      <point x="480" y="331"/>
    </contour>
    <contour>
      <point x="350" y="313" type="curve" smooth="yes"/>
      <point x="350" y="390"/>
      <point x="415" y="459"/>
      <point x="532" y="459" type="curve" smooth="yes"/>
      <point x="649" y="459"/>
      <point x="714" y="390"/>
      <point x="714" y="313" type="curve" smooth="yes"/>
      <point x="714" y="266"/>
      <point x="689" y="230"/>
      <point x="643" y="209" type="curve"/>
      <point x="699" y="190"/>
      <point x="734" y="153"/>
      <point x="734" y="91" type="curve" smooth="yes"/>
      <point x="734" y="-16"/>
      <point x="649" y="-61"/>
      <point x="532" y="-61" type="curve" smooth="yes"/>
      <point x="415" y="-61"/>
      <point x="330" y="-6"/>
      <point x="330" y="91" type="curve" smooth="yes"/>
      <point x="330" y="154"/>
      <point x="366" y="192"/>
      <point x="424" y="210" type="curve"/>
      <point x="376" y="233"/>
      <point x="350" y="271"/>
    </contour>
  </outline>
</glyph>
<glyph name="colon" format="1">
  <advance width="291"/>
  <unicode hex="003A"/>
  <outline>
    <contour>
      <point x="445" y="206" type="line"/>
      <point x="340" y="311" type="line"/>
      <point x="445" y="417" type="line"/>
      <point x="551" y="311" type="line"/>
    </contour>
    <contour>
      <point x="445" y="-79" type="line"/>
      <point x="340" y="26" type="line"/>
      <point x="445" y="132" type="line"/>
      <point x="551" y="26" type="line"/>
    </contour>
  </outline>
</glyph>
<glyph name="equal" format="1">
  <advance width="560"/>
  <unicode hex="003D"/>
  <outline>
    <contour>
      <point x="385" y="59" type="line"/>
      <point x="385" y="169" type="line"/>
      <point x="775" y="169" type="line"/>
      <point x="775" y="59" type="line"/>
    </contour>
    <contour>
      <point x="385" y="239" type="line"/>
      <point x="385" y="349" type="line"/>
      <point x="775" y="349" type="line"/>
      <point x="775" y="239" type="line"/>
    </contour>
  </outline>
</glyph>
<glyph name="D" format="1">
  <advance width="555"/>
  <unicode hex="0044"/>
  <outline>
    <contour>
      <point x="345" y="-51" type="curve"/>
      <point x="345" y="449" type="line"/>
      <point x="418" y="449"/>
      <point x="492" y="449"/>
      <point x="565" y="449" type="curve" smooth="yes"/>
      <point x="740" y="449"/>
      <point x="825" y="348"/>
      <point x="825" y="199" type="curve" smooth="yes"/>
      <point x="825" y="50"/>
      <point x="740" y="-51"/>
      <point x="565" y="-51" type="curve" smooth="yes"/>
      <point x="492" y="-51"/>
      <point x="418" y="-51"/>
    </contour>
    <contour>
      <point x="565" y="69" type="line" smooth="yes"/>
      <point x="627" y="69"/>
      <point x="680" y="106"/>
      <point x="680" y="199" type="curve" smooth="yes"/>
      <point x="680" y="292"/>
      <point x="627" y="329"/>
      <point x="565" y="329" type="curve" smooth="yes"/>
      <point x="485" y="329" type="line"/>
      <point x="485" y="69" type="line"/>
    </contour>
  </outline>
</glyph>
<glyph name="G" format="1">
  <advance width="555"/>
  <unicode hex="0047"/>
  <outline>
    <contour>
      <point x="475" y="199" type="curve" smooth="yes"/>
      <point x="475" y="106"/>
      <point x="548" y="54"/>
      <point x="605" y="54" type="curve" smooth="yes"/>
      <point x="639" y="54"/>
      <point x="667" y="61"/>
      <point x="690" y="73" type="curve"/>
      <point x="690" y="144" type="line"/>
      <point x="580" y="144" type="line"/>
      <point x="580" y="239" type="line"/>
      <point x="820" y="239" type="line"/>
      <point x="820" y="23" type="line"/>
      <point x="768" y="-29"/>
      <point x="686" y="-71"/>
      <point x="605" y="-71" type="curve" smooth="yes"/>
      <point x="450" y="-71"/>
      <point x="330" y="50"/>
      <point x="330" y="199" type="curve" smooth="yes"/>
      <point x="330" y="348"/>
      <point x="440" y="469"/>
      <point x="615" y="469" type="curve" smooth="yes"/>
      <point x="696" y="469"/>
      <point x="743" y="447"/>
      <point x="775" y="415" type="curve"/>
      <point x="735" y="288" type="line"/>
      <point x="710" y="321"/>
      <point x="666" y="344"/>
      <point x="605" y="344" type="curve" smooth="yes"/>
      <point x="548" y="344"/>
      <point x="475" y="292"/>
    </contour>
  </outline>
</glyph>
<glyph name="H" format="1">
  <advance width="560"/>
  <unicode hex="0048"/>
  <outline>
    <contour>
      <point x="345" y="-51" type="line"/>
      <point x="345" y="449" type="line"/>
      <point x="485" y="449" type="line"/>
      <point x="485" y="259" type="line"/>
      <point x="675" y="259" type="line"/>
      <point x="675" y="449" type="line"/>
      <point x="815" y="449" type="line"/>
      <point x="815" y="-51" type="line"/>
      <point x="675" y="-51" type="line"/>
      <point x="675" y="139" type="line"/>
      <point x="485" y="139" type="line"/>
      <point x="485" y="-51" type="line"/>
    </contour>
  </outline>
</glyph>
<glyph name="J" format="1">
  <advance width="319"/>
  <unicode hex="004A"/>
  <outline>
    <contour>
      <point x="434" y="-41" type="curve" smooth="yes"/>
      <point x="434" y="449" type="line"/>
      <point x="574" y="449" type="line"/>
      <point x="574" y="-81" type="line" smooth="yes"/>
      <point x="574" y="-178"/>
      <point x="484" y="-233"/>
      <point x="407" y="-233" type="curve" smooth="yes"/>
      <point x="340" y="-233"/>
      <point x="300" y="-213"/>
      <point x="250" y="-166" type="curve"/>
      <point x="300" y="-61" type="line"/>
      <point x="340" y="-99"/>
      <point x="369" y="-113"/>
      <point x="387" y="-113" type="curve" smooth="yes"/>
      <point x="415" y="-113"/>
      <point x="434" y="-99"/>
    </contour>
  </outline>
</glyph>
<glyph name="O" format="1">
  <advance width="610"/>
  <unicode hex="004F"/>
  <outline>
    <contour>
      <point x="330" y="199" type="curve" smooth="yes"/>
      <point x="330" y="348"/>
      <point x="430" y="469"/>
      <point x="605" y="469" type="curve" smooth="yes"/>
      <point x="780" y="469"/>
      <point x="880" y="348"/>
      <point x="880" y="199" type="curve" smooth="yes"/>
      <point x="880" y="50"/>
      <point x="780" y="-71"/>
      <point x="605" y="-71" type="curve" smooth="yes"/>
      <point x="430" y="-71"/>
      <point x="330" y="50"/>
    </contour>
    <contour>
      <point x="475" y="199" type="curve" smooth="yes"/>
      <point x="475" y="106"/>
      <point x="543" y="54"/>
      <point x="605" y="54" type="curve" smooth="yes"/>
      <point x="667" y="54"/>
      <point x="735" y="106"/>
      <point x="735" y="199" type="curve" smooth="yes"/>
      <point x="735" y="292"/>
      <point x="667" y="344"/>
      <point x="605" y="344" type="curve" smooth="yes"/>
      <point x="543" y="344"/>
      <point x="475" y="292"/>
    </contour>
  </outline>
</glyph>
<glyph name="P" format="1">
  <advance width="487"/>
  <unicode hex="0050"/>
  <outline>
    <contour>
      <point x="345" y="-51" type="line"/>
      <point x="345" y="449" type="line"/>
      <point x="418" y="449"/>
      <point x="492" y="449"/>
      <point x="565" y="449" type="curve" smooth="yes"/>
      <point x="682" y="449"/>
      <point x="767" y="374"/>
      <point x="767" y="267" type="curve" smooth="yes"/>
      <point x="767" y="150"/>
      <point x="682" y="84"/>
      <point x="565" y="84" type="curve" smooth="yes"/>
      <point x="485" y="84" type="line"/>
      <point x="485" y="-51" type="line"/>
    </contour>
    <contour>
      <point x="555" y="334" type="curve" smooth="yes"/>
      <point x="485" y="334" type="line"/>
      <point x="485" y="199" type="line"/>
      <point x="555" y="199" type="line" smooth="yes"/>
      <point x="593" y="199"/>
      <point x="622" y="219"/>
      <point x="622" y="267" type="curve" smooth="yes"/>
      <point x="622" y="315"/>
      <point x="593" y="334"/>
    </contour>
  </outline>
</glyph>
<glyph name="Q" format="1">
  <advance width="610"/>
  <unicode hex="0051"/>
  <outline>
    <contour>
      <point x="330" y="199" type="curve" smooth="yes"/>
      <point x="330" y="348"/>
      <point x="430" y="469"/>
      <point x="605" y="469" type="curve" smooth="yes"/>
      <point x="780" y="469"/>
      <point x="880" y="348"/>
      <point x="880" y="199" type="curve" smooth="yes"/>
      <point x="880" y="83"/>
      <point x="820" y="-16"/>
      <point x="711" y="-54" type="curve"/>
      <point x="865" y="-201" type="line"/>
      <point x="665" y="-201" type="line"/>
      <point x="551" y="-67" type="line"/>
      <point x="410" y="-45"/>
      <point x="330" y="66"/>
    </contour>
    <contour>
      <point x="475" y="199" type="curve" smooth="yes"/>
      <point x="475" y="106"/>
      <point x="543" y="54"/>
      <point x="605" y="54" type="curve" smooth="yes"/>
      <point x="667" y="54"/>
      <point x="735" y="106"/>
      <point x="735" y="199" type="curve" smooth="yes"/>
      <point x="735" y="292"/>
      <point x="667" y="344"/>
      <point x="605" y="344" type="curve" smooth="yes"/>
      <point x="543" y="344"/>
      <point x="475" y="292"/>
    </contour>
  </outline>
</glyph>
<glyph name="T" format="1">
  <advance width="480"/>
  <unicode hex="0054"/>
  <outline>
    <contour>
      <point x="320" y="329" type="line"/>
      <point x="320" y="449" type="line"/>
      <point x="760" y="449" type="line"/>
      <point x="760" y="329" type="line"/>
      <point x="610" y="329" type="line"/>
      <point x="610" y="-51" type="line"/>
      <point x="470" y="-51" type="line"/>
      <point x="470" y="329" type="line"/>
    </contour>
  </outline>
</glyph>
<glyph name="W" format="1">
  <advance width="880"/>
  <unicode hex="0057"/>
  <outline>
    <contour>
      <point x="1160" y="449" type="line"/>
      <point x="970" y="-51" type="line"/>
      <point x="810" y="-51" type="line"/>
      <point x="742" y="144" type="line"/>
      <point x="670" y="-51" type="line"/>
      <point x="510" y="-51" type="line"/>
      <point x="320" y="449" type="line"/>
      <point x="470" y="449" type="line"/>
      <point x="594" y="84" type="line"/>
      <point x="681" y="302" type="line"/>
      <point x="620" y="449" type="line"/>
      <point x="780" y="449" type="line"/>
      <point x="892" y="101" type="line"/>
      <point x="1010" y="449" type="line"/>
    </contour>
  </outline>
</glyph>
<glyph name="X" format="1">
  <advance width="620"/>
  <unicode hex="0058"/>
  <outline>
    <contour>
      <point x="900" y="-51" type="line"/>
      <point x="730" y="-51" type="line"/>
      <point x="610" y="103" type="line"/>
      <point x="490" y="-51" type="line"/>
      <point x="320" y="-51" type="line"/>
      <point x="525" y="212" type="line"/>
      <point x="340" y="449" type="line"/>
      <point x="510" y="449" type="line"/>
      <point x="610" y="321" type="line"/>
      <point x="710" y="449" type="line"/>
      <point x="880" y="449" type="line"/>
      <point x="695" y="212" type="line"/>
    </contour>
  </outline>
</glyph>
<glyph name="backslash" format="1">
  <advance width="460"/>
  <unicode hex="005C"/>
  <outline>
    <contour>
      <point x="750" y="-51" type="line"/>
      <point x="620" y="-51" type="line"/>
      <point x="310" y="449" type="line"/>
      <point x="440" y="449" type="line"/>
    </contour>
  </outline>
</glyph>
<glyph name="d" format="1">
  <advance width="499"/>
  <unicode hex="0064"/>
  <outline>
    <contour>
      <point x="759" y="-51" type="line"/>
      <point x="624" y="-51" type="line"/>
      <point x="624" y="-9" type="line"/>
      <point x="593" y="-41"/>
      <point x="552" y="-61"/>
      <point x="507" y="-61" type="curve" smooth="yes"/>
      <point x="400" y="-61"/>
      <point x="335" y="24"/>
      <point x="335" y="141" type="curve" smooth="yes"/>
      <point x="335" y="258"/>
      <point x="400" y="344"/>
      <point x="507" y="344" type="curve" smooth="yes"/>
      <point x="552" y="344"/>
      <point x="593" y="326"/>
      <point x="624" y="295" type="curve"/>
      <point x="624" y="479" type="line"/>
      <point x="759" y="479" type="line"/>
    </contour>
    <contour>
      <point x="624" y="200" type="line"/>
      <point x="605" y="224"/>
      <point x="576" y="239"/>
      <point x="547" y="239" type="curve" smooth="yes"/>
      <point x="499" y="239"/>
      <point x="470" y="199"/>
      <point x="470" y="141" type="curve" smooth="yes"/>
      <point x="470" y="83"/>
      <point x="499" y="44"/>
      <point x="547" y="44" type="curve" smooth="yes"/>
      <point x="576" y="44"/>
      <point x="605" y="58"/>
      <point x="624" y="82" type="curve"/>
    </contour>
  </outline>
</glyph>
<glyph name="l" format="1">
  <advance width="215"/>
  <unicode hex="006C"/>
  <outline>
    <contour>
      <point x="340" y="-51" type="line"/>
      <point x="340" y="479" type="line"/>
      <point x="475" y="479" type="line"/>
      <point x="475" y="-51" type="line"/>
    </contour>
  </outline>
</glyph>
<glyph name="m" format="1">
  <advance width="693"/>
  <unicode hex="006D"/>
  <outline>
    <contour>
      <point x="340" y="-51" type="line"/>
      <point x="340" y="334" type="line"/>
      <point x="475" y="334" type="line"/>
      <point x="475" y="268" type="line"/>
      <point x="505" y="315"/>
      <point x="549" y="344"/>
      <point x="592" y="344" type="curve" smooth="yes"/>
      <point x="652" y="344"/>
      <point x="687" y="317"/>
      <point x="703" y="269" type="curve"/>
      <point x="739" y="315"/>
      <point x="789" y="344"/>
      <point x="831" y="344" type="curve" smooth="yes"/>
      <point x="918" y="344"/>
      <point x="953" y="288"/>
      <point x="953" y="191" type="curve" smooth="yes"/>
      <point x="953" y="-51" type="line"/>
      <point x="818" y="-51" type="line"/>
      <point x="818" y="161" type="line" smooth="yes"/>
      <point x="818" y="219"/>
      <point x="809" y="239"/>
      <point x="781" y="239" type="curve" smooth="yes"/>
      <point x="754" y="239"/>
      <point x="730" y="220"/>
      <point x="714" y="195" type="curve"/>
      <point x="714" y="113"/>
      <point x="714" y="31"/>
      <point x="714" y="-51" type="curve"/>
      <point x="579" y="-51" type="line"/>
      <point x="579" y="161" type="line" smooth="yes"/>
      <point x="579" y="219"/>
      <point x="570" y="239"/>
      <point x="542" y="239" type="curve" smooth="yes"/>
      <point x="515" y="239"/>
      <point x="491" y="220"/>
      <point x="475" y="195" type="curve"/>
      <point x="475" y="-51" type="line"/>
    </contour>
  </outline>
</glyph>
<glyph name="n" format="1">
  <advance width="474"/>
  <unicode hex="006E"/>
  <outline>
    <contour>
      <point x="340" y="-51" type="line"/>
      <point x="340" y="334" type="line"/>
      <point x="475" y="334" type="line"/>
      <point x="475" y="262" type="line"/>
      <point x="508" y="312"/>
      <point x="557" y="344"/>
      <point x="602" y="344" type="curve" smooth="yes"/>
      <point x="689" y="344"/>
      <point x="734" y="288"/>
      <point x="734" y="191" type="curve" smooth="yes"/>
      <point x="734" y="-51" type="line"/>
      <point x="599" y="-51" type="line"/>
      <point x="599" y="161" type="line" smooth="yes"/>
      <point x="599" y="219"/>
      <point x="580" y="239"/>
      <point x="552" y="239" type="curve" smooth="yes"/>
      <point x="523" y="239"/>
      <point x="494" y="217"/>
      <point x="475" y="189" type="curve"/>
      <point x="475" y="-51" type="line"/>
    </contour>
  </outline>
</glyph>
<glyph name="u" format="1">
  <advance width="474"/>
  <unicode hex="0075"/>
  <outline>
    <contour>
      <point x="734" y="334" type="line"/>
      <point x="734" y="-51" type="line"/>
      <point x="599" y="-51" type="line"/>
      <point x="599" y="21" type="line"/>
      <point x="566" y="-29"/>
      <point x="517" y="-61"/>
      <point x="472" y="-61" type="curve" smooth="yes"/>
      <point x="385" y="-61"/>
      <point x="340" y="-5"/>
      <point x="340" y="92" type="curve" smooth="yes"/>
      <point x="340" y="334" type="line"/>
      <point x="475" y="334" type="line"/>
      <point x="475" y="122" type="line" smooth="yes"/>
      <point x="475" y="64"/>
      <point x="494" y="44"/>
      <point x="522" y="44" type="curve" smooth="yes"/>
      <point x="551" y="44"/>
      <point x="580" y="66"/>
      <point x="599" y="94" type="curve"/>
      <point x="599" y="334" type="line"/>
    </contour>
  </outline>
</glyph>
<glyph name="w" format="1">
  <advance width="695"/>
  <unicode hex="0077"/>
  <outline>
    <contour>
      <point x="435" y="-51" type="line"/>
      <point x="315" y="334" type="line"/>
      <point x="460" y="334" type="line"/>
      <point x="513" y="77" type="line"/>
      <point x="590" y="334" type="line"/>
      <point x="705" y="334" type="line"/>
      <point x="788" y="77" type="line"/>
      <point x="835" y="334" type="line"/>
      <point x="980" y="334" type="line"/>
      <point x="870" y="-51" type="line"/>
      <point x="725" y="-51" type="line"/>
      <point x="649" y="156" type="line"/>
      <point x="580" y="-51" type="line"/>
    </contour>
  </outline>
</glyph>
